{
	"asset":{
		"generator":"Khronos glTF Blender I/O v4.2.60",
		"version":"2.0"
	},
	"scene":0,
	"scenes":[
		{
			"name":"Scene",
			"nodes":[
				0
			]
		}
	],
	"nodes":[
		{
			"mesh":0,
			"name":"Curve"
		}
	],
	"materials":[
		{
			"doubleSided":true,
			"name":"SVGMat.063",
			"pbrMetallicRoughness":{
				"baseColorFactor":[
					1,
					0,
					0,
					1
				],
				"metallicFactor":0,
				"roughnessFactor":0.4000000059604645
			}
		}
	],
	"meshes":[
		{
			"name":"Curve.061",
			"primitives":[
				{
					"attributes":{
						"POSITION":0,
						"NORMAL":1,
						"TEXCOORD_0":2
					},
					"indices":3,
					"material":0
				}
			]
		}
	],
	"accessors":[
		{
			"bufferView":0,
			"componentType":5126,
			"count":97257,
			"max":[
				0.06207110732793808,
				0.002311377553269267,
				2.823770046234131e-06
			],
			"min":[
				2.1166051737964153e-06,
				0,
				-0.06204142048954964
			],
			"type":"VEC3"
		},
		{
			"bufferView":1,
			"componentType":5126,
			"count":97257,
			"type":"VEC3"
		},
		{
			"bufferView":2,
			"componentType":5126,
			"count":97257,
			"type":"VEC2"
		},
		{
			"bufferView":3,
			"componentType":5125,
			"count":197352,
			"type":"SCALAR"
		}
	],
	"bufferViews":[
		{
			"buffer":0,
			"byteLength":1167084,
			"byteOffset":0,
			"target":34962
		},
		{
			"buffer":0,
			"byteLength":1167084,
			"byteOffset":1167084,
			"target":34962
		},
		{
			"buffer":0,
			"byteLength":778056,
			"byteOffset":2334168,
			"target":34962
		},
		{
			"buffer":0,
			"byteLength":789408,
			"byteOffset":3112224,
			"target":34963
		}
	],
	"buffers":[
		{
			"byteLength":3901632,
			"uri":"NSUT_logo.bin"
		}
	]
}
